<?xml version="1.0" standalone="no"?><!DOCTYPE svg PUBLIC "-//W3C//DTD SVG 1.1//EN" "http://www.w3.org/Graphics/SVG/1.1/DTD/svg11.dtd"><svg t="1720429295902" class="icon" viewBox="0 0 1025 1024" version="1.1" xmlns="http://www.w3.org/2000/svg" p-id="35078" xmlns:xlink="http://www.w3.org/1999/xlink" width="200.1953125" height="200"><path d="M201.424912 782.669795 201.424912 239.597444c0-5.898983 1.014805-11.70477 1.815603-17.393199L47.557749 272.882345C11.445892 284.611277-8.353154 323.760645 3.37923 359.869051l167.888035 516.490683c9.4508 29.091066 36.722811 47.688914 65.841491 47.688914 7.024243 0 14.183103-1.087291 21.203894-3.365424l44.168163-14.535178C245.299679 894.729768 201.424912 843.054122 201.424912 782.669795z" p-id="35079" fill="#ffffff"></path><path d="M423.484184 99.951352 423.484184 100.814281 423.525605 100.814281Z" p-id="35080" fill="#ffffff"></path><path d="M314.444462 701.647655l167.812097-516.38368c1.694793-5.218995 3.72095-11.535636 6.026697-14.987353L326.836124 170.276623c-37.968881 0-70.18375 31.348489-70.18375 69.317369l0 543.072351c0 37.968881 32.214869 71.050131 70.18375 71.050131l55.12046 0C324.671898 826.106194 294.641965 762.594612 314.444462 701.647655z" p-id="35081" fill="#ffffff"></path><path d="M976.311086 272.882345 621.771486 157.688213c-7.020791-2.285036-14.158941-3.365424-21.186635-3.365424-29.11868 0-56.352722 18.594396-65.803522 47.682011l-167.812097 516.490683c-11.732384 36.115309 8.211633 75.257773 44.323491 86.993609l354.536149 115.194132c7.020791 2.278133 14.158941 3.365424 21.186635 3.365424 29.11868 0 56.352722-18.6013 65.803522-47.688914l167.815549-516.490683C1032.366961 323.760645 1012.422943 284.611277 976.311086 272.882345zM644.915244 676.705552c-167.19424-203.023056-69.793706-303.920179-8.149502-303.644042 51.94488 0.248524 73.093547 37.495995 82.112882 75.823855 27.782865-30.513173 68.820322-43.443303 110.993393-13.119974C879.918453 471.746083 899.482782 610.601731 644.915244 676.705552z" p-id="35082" fill="#ffffff"></path></svg>