<?xml version="1.0" standalone="no"?><!DOCTYPE svg PUBLIC "-//W3C//DTD SVG 1.1//EN" "http://www.w3.org/Graphics/SVG/1.1/DTD/svg11.dtd"><svg t="1720432092952" class="icon" viewBox="0 0 1024 1024" version="1.1" xmlns="http://www.w3.org/2000/svg" p-id="38096" xmlns:xlink="http://www.w3.org/1999/xlink" width="200" height="200"><path d="M512 183.466667c149.333333 0 292.266667 46.933333 409.6 132.266666 19.2 12.8 23.466667 40.533333 8.533333 59.733334-12.8 19.2-40.533333 23.466667-59.733333 8.533333-102.4-74.666667-228.266667-115.2-358.4-115.2-130.133333 0-256 40.533333-358.4 115.2-19.2 12.8-44.8 8.533333-59.733333-8.533333-12.8-19.2-8.533333-44.8 8.533333-59.733334 119.466667-85.333333 260.266667-132.266667 409.6-132.266666z m0 170.666666c108.8 0 211.2 32 298.666667 91.733334 19.2 12.8 23.466667 40.533333 10.666666 59.733333-12.8 19.2-40.533333 23.466667-59.733333 10.666667-72.533333-51.2-160-78.933333-251.733333-78.933334-91.733333 0-177.066667 27.733333-249.6 76.8-19.2 12.8-44.8 8.533333-59.733334-10.666666-12.8-19.2-8.533333-44.8 10.666667-59.733334 89.6-57.6 192-89.6 300.8-89.6z m0 168.533334c23.466667 0 42.666667 19.2 42.666667 42.666666s-19.2 42.666667-42.666667 42.666667c-51.2 0-100.266667 14.933333-142.933333 40.533333-19.2 12.8-46.933333 6.4-57.6-14.933333-12.8-19.2-6.4-46.933333 14.933333-57.6 53.333333-34.133333 117.333333-53.333333 185.6-53.333333z m0 189.866666c34.133333 0 64 27.733333 64 64 0 34.133333-27.733333 64-64 64s-64-27.733333-64-64c0-34.133333 27.733333-64 64-64z m164.266667-106.666666l89.6 89.6 89.6-89.6c17.066667-17.066667 42.666667-17.066667 59.733333 0 17.066667 17.066667 17.066667 42.666667 0 59.733333l-89.6 89.6 89.6 89.6c17.066667 17.066667 17.066667 42.666667 0 59.733333-17.066667 17.066667-42.666667 17.066667-59.733333 0l-89.6-89.6-89.6 89.6c-17.066667 17.066667-42.666667 17.066667-59.733334 0-17.066667-17.066667-17.066667-42.666667 0-59.733333l89.6-89.6-89.6-89.6c-17.066667-17.066667-17.066667-42.666667 0-59.733333 14.933333-17.066667 42.666667-17.066667 59.733334 0z" p-id="38097" fill="#ffffff"></path></svg>