<?xml version="1.0" standalone="no"?><!DOCTYPE svg PUBLIC "-//W3C//DTD SVG 1.1//EN" "http://www.w3.org/Graphics/SVG/1.1/DTD/svg11.dtd"><svg t="1763605888484" class="icon" viewBox="0 0 1024 1024" version="1.1" xmlns="http://www.w3.org/2000/svg" p-id="1686" xmlns:xlink="http://www.w3.org/1999/xlink" width="200" height="200"><path d="M958.016 240.484c7.816-35.556-14.7-70.772-50.256-78.592l-445.432-97.96c-35.556-7.82-70.772 14.7-78.592 50.256L251.412 715.884c-7.82 35.556 14.696 70.772 50.252 78.592l445.432 97.96c35.556 7.82 70.772-14.7 78.592-50.256l132.328-601.696z" fill="#FFA951" p-id="1687"></path><path d="M895.324 305.948a22.176 22.176 0 0 0-16.888-26.412l-38.116-8.384 8.384-38.116a22.184 22.184 0 0 0-16.892-26.412L512.5 136.4a22.16 22.16 0 0 0-26.412 16.888l-8.384 38.116-38.112-8.38a22.16 22.16 0 0 0-26.412 16.888l-99.08 450.512a22.168 22.168 0 0 0 16.888 26.412l38.116 8.38-8.38 38.116a22.16 22.16 0 0 0 16.888 26.412l319.312 70.224a22.16 22.16 0 0 0 26.412-16.888l8.384-38.116 38.116 8.384a22.184 22.184 0 0 0 26.412-16.892l99.076-450.508z" fill="#FACD92" p-id="1688"></path><path d="M620.228 343.036a16.14 16.14 0 0 1 27.104 5.96l22.2 67.004 63.9 29.984a16.14 16.14 0 0 1 2.708 27.62l-56.868 41.82-8.768 70.04a16.152 16.152 0 0 1-25.432 11.108l-57.344-41.16-69.32 13.304a16.152 16.152 0 0 1-18.424-20.756l21.424-67.256-34.072-61.816a16.14 16.14 0 0 1 14.044-23.936l70.584-0.408 48.264-51.508z" fill="#FFA951" p-id="1689"></path><path d="M826.712 144.068v594.156c0 36.404-29.556 65.96-65.96 65.96H345.816l-44.152-9.708c-35.556-7.82-58.072-43.036-50.252-78.592L383.736 114.188c7.82-35.556 43.036-58.076 78.592-50.256l364.384 80.136z" fill="#FFA951" p-id="1690"></path><path d="M802.712 122.148c0-36.408-29.556-65.964-65.96-65.964H280.676c-36.408 0-65.964 29.556-65.964 65.964v616.076c0 36.404 29.556 65.96 65.964 65.96h456.076c36.404 0 65.96-29.556 65.96-65.96V122.148z" fill="#FF4973" p-id="1691"></path><path d="M755.548 199.544a22.156 22.156 0 0 0-6.496-15.672 22.148 22.148 0 0 0-15.672-6.496h-39.028v-39.024a22.18 22.18 0 0 0-22.168-22.168H345.24a22.18 22.18 0 0 0-22.168 22.168v39.024h-39.024a22.16 22.16 0 0 0-22.168 22.168v461.28a22.16 22.16 0 0 0 22.168 22.168h39.024v39.024a22.18 22.18 0 0 0 22.168 22.168h326.944a22.172 22.172 0 0 0 22.168-22.168v-39.024h39.028c5.88 0 11.516-2.336 15.672-6.496a22.156 22.156 0 0 0 6.496-15.672V199.544z" fill="#FF899F" p-id="1692"></path><path d="M494.836 294.856a16.152 16.152 0 0 1 27.752 0l36.072 60.676 68.852 15.556a16.152 16.152 0 0 1 8.576 26.396l-46.556 53.056 6.48 70.288a16.144 16.144 0 0 1-22.452 16.312l-64.848-27.884-64.844 27.884a16.148 16.148 0 0 1-22.452-16.312l6.476-70.288-46.556-53.056a16.152 16.152 0 0 1 8.576-26.396l68.852-15.556 36.072-60.676z" fill="#FF4973" p-id="1693"></path><path d="M668.82 163.096c-9.436-35.164-45.644-56.048-80.808-46.612L147.524 234.704c-35.16 9.436-56.044 45.644-46.608 80.804l159.692 595.02c9.436 35.16 45.644 56.044 80.804 46.608l440.488-118.216c35.16-9.436 56.048-45.644 46.608-80.804L668.82 163.096z" fill="#FF5A7B" p-id="1694"></path><path d="M643.328 250.076a22.148 22.148 0 0 0-10.336-13.456 22.152 22.152 0 0 0-16.82-2.208l-37.692 10.112-10.116-37.688a22.168 22.168 0 0 0-27.156-15.668L225.436 275.916a22.168 22.168 0 0 0-15.664 27.156l10.116 37.692-37.692 10.116a22.16 22.16 0 0 0-15.664 27.156l119.564 445.512a22.176 22.176 0 0 0 27.156 15.664l37.692-10.116 10.116 37.692a22.164 22.164 0 0 0 27.156 15.664l315.772-84.744a22.164 22.164 0 0 0 15.664-27.16l-10.116-37.692 37.692-10.112a22.164 22.164 0 0 0 15.664-27.16L643.328 250.076z" fill="#FF5A7B" p-id="1695"></path><path d="M416.232 409.708a16.144 16.144 0 0 1 26.804-7.196l50.568 49.248 70.528-2.82a16.14 16.14 0 0 1 15.124 23.272l-31.212 63.308 24.48 66.208a16.152 16.152 0 0 1-17.46 21.576l-69.856-10.124-55.4 43.74a16.144 16.144 0 0 1-25.916-9.936l-11.96-69.564-58.716-39.176a16.144 16.144 0 0 1 1.44-27.716l62.464-32.872 19.112-67.948z" fill="#FF5A7B" p-id="1696"></path><path d="M636.82 159.096c-9.436-35.164-45.644-56.048-80.808-46.612L115.524 230.704c-35.16 9.436-56.044 45.644-46.608 80.804l159.692 595.02c9.436 35.16 45.644 56.044 80.804 46.608l440.488-118.216c35.16-9.436 56.048-45.644 46.608-80.804L636.82 159.096z" fill="#00BDFF" p-id="1697"></path><path d="M611.328 246.076a22.148 22.148 0 0 0-10.336-13.456 22.152 22.152 0 0 0-16.82-2.208l-37.692 10.112-10.116-37.688a22.168 22.168 0 0 0-27.156-15.668L193.436 271.916a22.168 22.168 0 0 0-15.664 27.156l10.116 37.692-37.692 10.116a22.16 22.16 0 0 0-15.664 27.156l119.564 445.512a22.176 22.176 0 0 0 27.156 15.664l37.692-10.116 10.116 37.692a22.164 22.164 0 0 0 27.156 15.664l315.772-84.744a22.164 22.164 0 0 0 15.664-27.16l-10.116-37.692 37.692-10.112a22.164 22.164 0 0 0 15.664-27.16L611.328 246.076z" fill="#70E4FF" p-id="1698"></path><path d="M384.232 405.708a16.144 16.144 0 0 1 26.804-7.196l50.568 49.248 70.528-2.82a16.14 16.14 0 0 1 15.124 23.272l-31.212 63.308 24.48 66.208a16.152 16.152 0 0 1-17.46 21.576l-69.856-10.124-55.4 43.74a16.144 16.144 0 0 1-25.916-9.936l-11.96-69.564-58.716-39.176a16.144 16.144 0 0 1 1.44-27.716l62.464-32.872 19.112-67.948z" fill="#00BCFF" p-id="1699"></path></svg>